<?xml version="1.0" encoding="utf-8"?>
<!-- Generator: Adobe Illustrator 26.0.0, SVG Export Plug-In . SVG Version: 6.00 Build 0)  -->
<svg version="1.1" id="Livello_1" xmlns="http://www.w3.org/2000/svg" xmlns:xlink="http://www.w3.org/1999/xlink" x="0px" y="0px"
	 viewBox="0 0 554 214" style="enable-background:new 0 0 554 214;" xml:space="preserve">
<g>
	<path d="M420.34,92.37c3.89,0.81,7.32,1.82,10.83,2.19c4.95,0.52,9.35-1.71,13.32-4.24c4.56-2.9,8.75-6.42,12.98-9.81
		c6.3-5.04,13.17-8.97,20.83-11.59c6.49-2.21,13.11-3.2,19.91-2.63c7.02,0.59,13.21,3.39,18.93,7.47c5.01,3.57,7.7,8.78,10.43,13.96
		c2.94,5.58,5.62,11.29,7.19,17.46c0.75,2.94,0.66,3.22-2.19,4.2c-3.47,1.19-6.88,2.72-10.72,2.23c-0.38-0.05-0.8,0.23-1.84,0.56
		c1.05,0.61,1.64,1.23,2.28,1.29c3.16,0.28,6.33,0.4,9.49,0.61c0.63,0.04,1.7,0.15,1.79,0.45c0.17,0.59,0.01,1.51-0.39,1.99
		c-1.99,2.4-4.24,4.36-7.66,4.37c-21.44,0.05-42.87,0.17-64.31,0.19c-8.88,0.01-17.76-0.19-26.53,1.52
		c-3.62,0.7-7.22,1.49-10.83,2.21c-0.65,0.13-1.33,0.14-2.47,0.25c0.52-1.96,0.86-3.64,1.42-5.24c1.66-4.73,2.21-9.57,1.99-14.57
		c-0.17-4-2.44-7.17-3.73-10.72C420.82,93.86,420.61,93.19,420.34,92.37z"/>
	<path d="M315.4,193c-5.98-0.3-11.98-0.48-17.95-0.93c-2.74-0.21-5.48-0.94-7.5-3.01c-0.7-0.73-1.3-1.89-1.34-2.88
		c-0.22-6.03,2.99-9.57,9.68-11.05c3.9-0.87,7.86-1.57,11.63-2.84c12.32-4.14,22.29-11.63,30-22.07c2.76-3.74,4.81-7.9,5.88-12.45
		c0.43-1.83,1.34-2.65,3.19-2.72c4.37-0.17,8.74-0.32,13.09-0.68c5.72-0.46,11.41-1.24,17.13-1.63c3.67-0.25,7.37-0.06,11.06-0.03
		c4.09,0.03,5.21,1.39,4.62,5.47c-0.86,5.95-3.02,11.47-5.73,16.76c-3.6,7.02-7.9,13.62-13.19,19.49c-1.97,2.19-4.45,4.01-6.9,5.68
		c-5.39,3.69-11.25,6.31-17.64,7.98c-7.2,1.88-14.32,4.05-21.79,4.44c-4.73,0.25-9.49,0.05-14.24,0.05
		C315.41,192.71,315.4,192.85,315.4,193z"/>
	<path d="M233.54,98.29c-0.33,6.17-0.6,12.35-1,18.52c-0.17,2.55-0.59,5.09-0.98,7.61c-0.07,0.45-0.55,0.83-0.84,1.24
		c-0.25-0.38-0.68-0.73-0.74-1.13c-0.4-2.7-0.83-5.41-1.05-8.13c-0.49-6.29-0.42-12.65-1.36-18.87c-2.4-15.87-5.17-31.68-7.92-47.5
		c-0.77-4.42-1.97-8.76-3.04-13.12c-0.61-2.49-0.65-2.92,1.74-3.92c3.03-1.27,6.15-2.5,9.35-3.15c7.76-1.58,15.62-1.96,23.49-0.75
		c7.09,1.09,12.88,4.5,17.56,9.91c4.9,5.66,7.5,12.44,9.94,19.37c3.18,9.02,4.44,18.43,6.01,27.79c1.97,11.73,1.67,23.54,1.64,35.35
		c0,0.37,0.02,0.81-0.16,1.1c-0.32,0.54-0.79,0.99-1.19,1.48c-0.35-0.46-0.92-0.89-1.01-1.39c-0.64-3.74-1.19-7.5-1.76-11.26
		c-1.52-9.99-4.3-19.64-7.71-29.13c-1.5-4.17-3.17-8.28-4.72-12.43c-0.66-1.77-1.71-2.76-3.72-3.12
		c-9.09-1.64-18.11-2.01-27.09,0.71c-2.19,0.66-3.33,1.71-3.53,4.11c-0.72,8.9-1.6,17.79-2.43,26.68
		C233.21,98.27,233.37,98.28,233.54,98.29z M265,54.84c-0.27-0.73-0.44-1.3-0.68-1.84c-1.2-2.74-3.25-4.66-5.76-6.2
		c-6.42-3.94-13.52-5.38-20.89-5.67c-2.51-0.1-5.05,0.38-7.63,0.61c0,0.6-0.07,0.92,0.01,1.2c1.17,4.14,2.36,8.27,3.54,12.4
		c0.3,1.05,0.99,1.52,2.1,1.4c0.8-0.09,1.62-0.08,2.43-0.13c6.03-0.38,12.07-0.77,18.1-1.16C259.06,55.26,261.9,55.05,265,54.84z"/>
	<path d="M180,79c0.61,3.25,1.42,6.16,1.66,9.12c0.48,5.97,1.13,11.99,0.8,17.94c-0.32,5.86-2.2,11.51-5.25,16.65
		c-0.27,0.46-1.05,0.62-1.6,0.92c-0.24-0.52-0.69-1.04-0.7-1.57c-0.06-4.44,0.16-8.89-0.1-13.31c-0.63-10.61-1.72-21.15-5.29-31.28
		c-2.39-6.77-4.77-13.54-7.05-20.34c-0.2-0.6,0.17-1.83,0.67-2.15c4.3-2.76,8.5-5.81,13.11-7.93c7.7-3.54,15.68-6.46,23.54-9.64
		c0.17-0.07,0.35-0.14,0.53-0.2c7.98-2.57,11.24-0.47,13.98,7.87c0.23,0.69,0.1,1.62-0.16,2.33c-3.13,8.74-7.99,16.49-13.72,23.73
		c-1.55,1.96-3.01,3.99-4.65,5.87c-0.9,1.03-0.8,1.69,0.02,2.7c5.03,6.2,10.33,12.23,14.91,18.75c5.25,7.49,10.79,14.9,13.73,23.75
		c0.18,0.54-0.04,1.21-0.08,1.82c-0.51-0.26-1.19-0.38-1.49-0.78c-5.1-6.74-11.02-12.73-17.03-18.65
		c-8.28-8.14-16.41-16.43-24.61-24.65C180.93,79.68,180.58,79.45,180,79z M177.89,59.78c3.35,3.53,6.56,6.91,9.84,10.36
		c0.68-0.5,1.26-0.79,1.66-1.23c3.9-4.37,7.86-8.69,11.57-13.22c0.95-1.16,1.29-2.96,1.52-4.53c0.4-2.71-1.14-3.88-3.75-2.92
		c-2.69,0.99-5.4,2-7.95,3.31C186.35,53.81,181.89,56.08,177.89,59.78z"/>
	<path d="M94.99,118.7c1.4-10.59,3.53-20.57,9.22-29.4c3.03-4.7,7.05-8.54,11.15-12.33c3.87-3.57,8.37-6.1,13-8.42
		c4.79-2.4,9.57-4.9,14.54-6.87c5.04-2,6.92-1.42,10.09,3.97c3.93,6.69,6.9,13.82,8.99,21.34c1.67,6.01,3.98,11.84,5.62,17.86
		c1.39,5.1,2.24,10.35,3.32,15.54c0.05,0.24,0.09,0.52,0.03,0.74c-0.26,0.85-0.56,1.69-0.84,2.53c-0.57-0.63-1.29-1.19-1.69-1.92
		c-5.11-9.37-10.18-18.76-15.25-28.15c-1.91-3.54-4.89-5.1-8.9-5.08c-8.58,0.05-16.67,2.27-24.52,5.49
		c-2.99,1.23-5.93,2.64-8.74,4.23c-1.12,0.63-2.1,1.82-2.69,2.99c-3.33,6.56-6.52,13.19-9.75,19.8c-0.22,0.45-0.34,0.95-0.6,1.36
		c-0.78,1.21-1.85,1.19-2.34-0.19C95.17,121,95.14,119.66,94.99,118.7z M118.38,85.41c0.13,0.16,0.26,0.33,0.39,0.49
		c0.39-0.13,0.8-0.22,1.18-0.38c6.33-2.79,12.99-4.42,19.8-5.5c2.27-0.36,4.54-0.8,6.77-1.35c0.46-0.11,1.1-0.88,1.08-1.33
		c-0.13-3.43-2.67-5.28-5.96-4.48c-6.38,1.55-12.32,4.14-17.77,7.76C121.87,81.95,120.2,83.8,118.38,85.41z"/>
	<path d="M278.99,29.4c11.81,0.64,23.29,1.92,34.14,5.88c7.59,2.77,14.9,6.49,21.98,10.42c8.67,4.81,16.98,10.28,25.45,15.47
		c0.58,0.36,1.18,0.74,1.66,1.21c0.26,0.26,0.51,0.82,0.4,1.09c-0.12,0.27-0.7,0.51-1.06,0.49c-5.74-0.39-11.51-0.65-16.82-3.24
		c-6.22-3.04-12.46-6.05-18.64-9.18c-3.88-1.96-3.88-2.07-5.8,1.75c-3.23,6.44-5.76,13.13-7.61,20.11
		c-2.6,9.84-5.48,19.6-8.19,29.41c-1.75,6.31-3.38,12.65-5.16,18.96c-0.24,0.85-1.03,1.54-1.57,2.3c-0.34-0.86-0.84-1.69-0.98-2.58
		c-0.34-2.09-0.51-4.22-0.74-6.33c-0.86-7.84,0.1-15.57,1.51-23.27c0.92-5.03,1.47-10.16,2.76-15.1c1.53-5.84,3.63-11.53,5.58-17.25
		c1.41-4.13,2.94-8.22,4.47-12.31c0.41-1.09,0.19-1.82-0.8-2.33c-1.66-0.86-3.26-1.91-5.02-2.47c-5.53-1.76-11.14-3.27-16.68-4.99
		c-5.66-1.77-11.28-3.67-16.9-5.56c-0.52-0.17-0.92-0.71-1.37-1.07c0.54-0.33,1.05-0.89,1.61-0.94
		C273.89,29.63,276.57,29.54,278.99,29.4z"/>
	<path d="M357.29,125.1c0.15-1.83,0.29-3.66,0.44-5.5c0.59-7.31,0.78-14.59-0.89-21.82c-0.43-1.87-1.28-3.04-3.23-3.31
		c-5.13-0.72-10.27-1.43-15.39-2.2c-3.03-0.46-6.06-0.92-9.04-1.59c-2.49-0.55-4.31,0.29-5.71,2.22c-2.45,3.39-5.08,6.68-7.2,10.27
		c-3.77,6.39-7.21,12.98-10.85,19.46c-0.3,0.53-1.1,0.77-1.66,1.15c-0.09-0.54-0.4-1.15-0.24-1.6c5.72-16.06,11.36-32.15,17.3-48.14
		c1.71-4.6,4.24-8.9,6.4-13.33c0.59-1.2,1.45-1.84,2.87-1.33c5.93,2.14,12.07,3.82,17.72,6.54c4.79,2.3,9.3,5.44,13.36,8.89
		c3.43,2.91,5.06,7.25,5.3,11.85c0.58,11.04,0.39,22.01-4.49,32.28c-1.07,2.26-2.6,4.31-3.91,6.45
		C357.82,125.29,357.56,125.19,357.29,125.1z M334.44,69.76c-1.63,3.47-3.14,6.7-4.87,10.42c1.81,0.36,3.21,0.78,4.63,0.9
		c6.12,0.51,12.14,1.39,17.81,3.91c0.76,0.34,1.56,0.6,2.57,0.98c-0.53-3.65-2.28-6.1-5.11-7.74
		C344.58,75.4,339.63,72.68,334.44,69.76z"/>
	<path d="M99.74,162.11c-3.66-0.37-7.36-0.57-10.98-1.2c-1.52-0.27-2.88-1.45-4.32-2.22c0.96-1.25,1.69-2.83,2.92-3.69
		c2.65-1.84,5.44-3.6,8.39-4.87c6.51-2.8,11.17-7.47,14.59-13.48c1.09-1.9,2.31-2.63,4.55-2.64c8.37-0.03,16.74-0.42,25.12-0.46
		c4.49-0.02,8.99,0.32,13.47,0.67c2.81,0.22,3.57,1.35,2.21,3.83c-1.26,2.3-2.89,4.68-4.97,6.19c-4.07,2.95-8.39,5.69-12.93,7.84
		c-5.92,2.8-12.08,5.1-18.26,7.29C113.17,161.64,106.5,162.24,99.74,162.11z"/>
	<path d="M411.12,128.04c-2.66-3.08-5.2-5.59-7.22-8.47c-5.51-7.87-10.76-15.91-16.2-23.84c-2.17-3.16-4-6.71-8.2-8.33
		c-0.19,0.78-0.47,1.57-0.57,2.37c-0.53,4.28-0.97,8.56-1.52,12.83c-0.99,7.67-2.61,15.15-7.15,21.66c-0.28,0.41-0.74,0.7-1.11,1.04
		c-0.08-0.55-0.29-1.11-0.23-1.65c0.42-3.72,1.28-7.44,1.27-11.15c-0.03-12.05-0.28-24.11-0.67-36.15c-0.1-3.21-1.04-6.4-1.54-9.6
		c-0.09-0.55,0.09-1.15,0.15-1.73c0.65,0.08,1.47-0.07,1.93,0.27c2.34,1.76,4.75,3.48,6.85,5.51c8.63,8.35,15.45,18.11,21.69,28.32
		c2.4,3.93,5.21,7.61,7.84,11.4c0.25,0.35,0.58,0.65,0.9,0.94c0.12,0.1,0.32,0.1,0.71,0.21c0.42-8.17,0.3-16.15-3.2-23.78
		c0.26-0.11,0.52-0.23,0.78-0.34c0.9,0.79,1.85,1.52,2.69,2.37c4.01,4.06,5.78,9.2,6.42,14.67c0.76,6.49,0.63,12.99-1.71,19.24
		C412.58,125.06,411.97,126.21,411.12,128.04z"/>
	<path d="M69.35,106.04c-9.59,2.99-19.47,3.94-29.37,4.74c-0.12-0.26-0.24-0.53-0.36-0.79c0.65-0.46,1.25-1.1,1.97-1.34
		c5.62-1.89,11.33-3.54,16.89-5.59c6.26-2.31,12.34-5.11,18.58-7.45c8-3,15.11-7.7,22.66-11.55c0.33-0.17,0.78-0.09,1.18-0.12
		c-0.06,0.51,0.06,1.15-0.21,1.5c-2.25,2.91-4.26,6.09-6.92,8.57c-8.93,8.34-18.13,16.39-27.89,23.77
		c-0.51,0.39-0.95,0.88-1.42,1.32c0.04,0.21,0.09,0.41,0.13,0.62c1.69,0.11,3.38,0.3,5.06,0.3c4.31,0.01,8.62,0.06,12.92-0.16
		c3.53-0.18,6.55-1.89,9.37-3.94c0.53-0.39,1.07-0.77,2.04-0.94c-0.1,0.61,0.01,1.39-0.34,1.79c-1.48,1.73-2.81,3.97-4.73,4.85
		c-3.11,1.42-6.62,2.57-10,2.68c-9.98,0.33-19.97,0.1-29.96,0.04c-0.62,0-1.23-0.47-1.85-0.71c-0.02-0.21-0.04-0.42-0.06-0.63
		c7.55-5.42,15.1-10.84,22.65-16.25C69.61,106.52,69.48,106.28,69.35,106.04z"/>
	<path d="M35.25,111.08c0.21,0.76,0.58,1.56,0.63,2.39c0.25,3.8,0.4,7.6,0.63,11.4c0.07,1.18-0.5,1.56-1.56,1.56
		c-6.75-0.01-13.36-0.71-19.34-4.2c-0.71-0.42-1.56-1.41-1.51-2.08c0.05-0.67,1.06-1.71,1.78-1.83c6.72-1.12,12.62-4.26,18.59-7.23
		C34.6,111.02,34.82,111.08,35.25,111.08z"/>
</g>
</svg>
